<svg xmlns="http://www.w3.org/2000/svg" xmlns:xlink="http://www.w3.org/1999/xlink" width="1600" zoomAndPan="magnify" viewBox="0 0 1200 675.000002" height="900" preserveAspectRatio="xMidYMid meet" version="1.0"><defs><g/><clipPath id="58f3f460c8"><rect x="0" width="868" y="0" height="674"/></clipPath></defs><g transform="matrix(1, 0, 0, 1, 166, -0.000000000000005375)"><g clip-path="url(#58f3f460c8)"><g fill="#000000" fill-opacity="1"><g transform="translate(0.94882, 321.079595)"><g><path d="M 353.34375 -112.578125 C 355.570312 -112.328125 357.425781 -111.023438 358.90625 -108.671875 C 360.394531 -106.316406 360.894531 -103.90625 360.40625 -101.4375 C 359.90625 -96.226562 356.5625 -93.253906 350.375 -92.515625 C 320.894531 -88.796875 298.226562 -84.832031 282.375 -80.625 C 278.414062 -64.03125 272.84375 -46.941406 265.65625 -29.359375 C 256.988281 -8.054688 247.945312 10.207031 238.53125 25.4375 C 229.125 40.675781 217.359375 52.753906 203.234375 61.671875 C 195.054688 67.117188 186.257812 70.460938 176.84375 71.703125 C 167.4375 72.941406 158.148438 71.582031 148.984375 67.625 C 141.804688 63.90625 135.800781 58.515625 130.96875 51.453125 C 126.132812 44.398438 123.597656 37.035156 123.359375 29.359375 C 122.609375 15.734375 129.914062 0.00390625 145.28125 -17.828125 C 155.925781 -30.710938 166.820312 -41.863281 177.96875 -51.28125 C 197.289062 -68.363281 218.46875 -82.234375 241.5 -92.890625 C 247.445312 -117.898438 249.554688 -141.179688 247.828125 -162.734375 C 245.597656 -189.734375 236.925781 -213.882812 221.8125 -235.1875 C 207.695312 -255 187.507812 -269.613281 161.25 -279.03125 C 144.15625 -285.46875 125.578125 -288.566406 105.515625 -288.328125 C 106.753906 -276.929688 107.5 -253.644531 107.75 -218.46875 C 107.75 -213.019531 107.8125 -201.625 107.9375 -184.28125 C 108.0625 -166.945312 108.125 -153.570312 108.125 -144.15625 C 108.125 -105.519531 108.125 -80.75 108.125 -69.84375 C 107.875 -56.96875 107.875 -44.707031 108.125 -33.0625 C 108.125 -15.476562 107.378906 -3.34375 105.890625 3.34375 C 104.648438 7.550781 102.109375 10.457031 98.265625 12.0625 C 94.429688 13.675781 90.53125 13.613281 86.5625 11.875 C 82.601562 10.144531 80.003906 7.300781 78.765625 3.34375 C 77.035156 -3.09375 75.796875 -15.601562 75.046875 -34.1875 C 74.554688 -45.820312 74.1875 -57.707031 73.9375 -69.84375 C 73.195312 -92.382812 72.703125 -117.648438 72.453125 -145.640625 C 72.203125 -156.546875 72.328125 -181.8125 72.828125 -221.4375 C 73.066406 -250.414062 73.929688 -271.59375 75.421875 -284.96875 C 69.472656 -283.238281 63.773438 -280.765625 58.328125 -277.546875 C 52.140625 -273.828125 46.691406 -269.304688 41.984375 -263.984375 C 37.273438 -258.660156 36.035156 -253.394531 38.265625 -248.1875 C 39.503906 -244.96875 39.070312 -241.8125 36.96875 -238.71875 C 34.863281 -235.625 32.320312 -234.078125 29.34375 -234.078125 C 26.375 -234.078125 23.898438 -235.6875 21.921875 -238.90625 C 20.191406 -242.863281 19.140625 -246.765625 18.765625 -250.609375 C 18.390625 -254.453125 18.632812 -257.984375 19.5 -261.203125 C 20.375 -264.421875 21.738281 -267.640625 23.59375 -270.859375 C 25.445312 -274.078125 27.675781 -276.984375 30.28125 -279.578125 C 32.882812 -282.179688 35.859375 -284.722656 39.203125 -287.203125 C 42.546875 -289.679688 45.890625 -291.910156 49.234375 -293.890625 C 52.578125 -295.867188 56.101562 -297.847656 59.8125 -299.828125 C 63.53125 -301.816406 67 -303.429688 70.21875 -304.671875 C 73.4375 -305.910156 76.65625 -307.148438 79.875 -308.390625 C 96.476562 -314.078125 113.257812 -316.859375 130.21875 -316.734375 C 147.1875 -316.617188 163.972656 -314.082031 180.578125 -309.125 C 192.210938 -305.65625 203.234375 -300.882812 213.640625 -294.8125 C 224.046875 -288.75 233.582031 -281.503906 242.25 -273.078125 C 250.914062 -264.660156 258.46875 -255.25 264.90625 -244.84375 C 282.75 -216.363281 291.421875 -182.554688 290.921875 -143.421875 C 290.921875 -132.515625 290.054688 -121.242188 288.328125 -109.609375 C 310.859375 -114.804688 332.53125 -115.796875 353.34375 -112.578125 Z M 198.78125 7.4375 C 211.40625 -9.65625 222.425781 -32.195312 231.84375 -60.1875 C 216.488281 -52.007812 202.863281 -42.347656 190.96875 -31.203125 C 180.070312 -21.296875 171.40625 -11.757812 164.96875 -2.59375 C 164.96875 -2.59375 164.222656 -1.539062 162.734375 0.5625 C 161.253906 2.664062 160.203125 4.210938 159.578125 5.203125 C 158.960938 6.191406 158.035156 7.738281 156.796875 9.84375 C 155.554688 11.945312 154.6875 13.742188 154.1875 15.234375 C 153.695312 16.722656 153.203125 18.332031 152.703125 20.0625 C 152.210938 21.800781 152.148438 23.410156 152.515625 24.890625 C 152.890625 26.378906 153.445312 27.742188 154.1875 28.984375 C 156.664062 30.710938 159.882812 31.578125 163.84375 31.578125 C 167.8125 31.578125 170.910156 31.207031 173.140625 30.46875 C 181.316406 27.25 189.863281 19.570312 198.78125 7.4375 Z M 198.78125 7.4375 "/></g></g></g><g fill="#000000" fill-opacity="1"><g transform="translate(327.173183, 321.079595)"><g><path d="M 152.703125 -183.921875 C 156.671875 -187.140625 160.382812 -187.078125 163.84375 -183.734375 C 167.3125 -180.390625 167.4375 -176.734375 164.21875 -172.765625 C 156.289062 -163.597656 143.785156 -156.539062 126.703125 -151.59375 C 124.960938 -134.5 118.394531 -119.632812 107 -107 C 100.3125 -99.570312 92.015625 -94.429688 82.109375 -91.578125 C 72.203125 -88.734375 62.539062 -88.050781 53.125 -89.53125 C 43.71875 -91.019531 34.988281 -94.921875 26.9375 -101.234375 C 18.882812 -107.554688 13.375 -115.671875 10.40625 -125.578125 C 6.6875 -137.222656 7.488281 -150.039062 12.8125 -164.03125 C 18.144531 -178.03125 26.257812 -189.363281 37.15625 -198.03125 C 41.363281 -205.46875 48.050781 -210.609375 57.21875 -213.453125 C 66.382812 -216.296875 75.425781 -216.726562 84.34375 -214.75 C 94.988281 -212.519531 104.023438 -207.378906 111.453125 -199.328125 C 118.890625 -191.285156 123.597656 -181.8125 125.578125 -170.90625 C 125.578125 -170.90625 125.703125 -170.785156 125.953125 -170.546875 C 136.609375 -173.765625 145.523438 -178.222656 152.703125 -183.921875 Z M 72.078125 -189.125 C 65.390625 -189.863281 61.054688 -188.375 59.078125 -184.65625 C 58.335938 -182.925781 59.082031 -180.945312 61.3125 -178.71875 C 65.019531 -174.5 72.820312 -170.90625 84.71875 -167.9375 C 87.9375 -167.195312 91.523438 -166.828125 95.484375 -166.828125 C 93.003906 -180.691406 85.203125 -188.125 72.078125 -189.125 Z M 60.9375 -118.53125 C 71.582031 -117.039062 80.5 -121.25 87.6875 -131.15625 C 90.40625 -134.875 92.507812 -139.332031 94 -144.53125 C 80.375 -143.039062 67.617188 -145.269531 55.734375 -151.21875 C 50.285156 -153.945312 45.703125 -157.539062 41.984375 -162 C 39.753906 -156.050781 38.390625 -150.972656 37.890625 -146.765625 C 37.648438 -143.546875 37.648438 -140.820312 37.890625 -138.59375 C 37.890625 -136.851562 38.140625 -135.488281 38.640625 -134.5 C 39.378906 -132.769531 40.367188 -131.160156 41.609375 -129.671875 C 42.847656 -128.179688 44.148438 -126.816406 45.515625 -125.578125 C 46.878906 -124.335938 48.425781 -123.222656 50.15625 -122.234375 C 51.894531 -121.242188 53.628906 -120.4375 55.359375 -119.8125 C 57.097656 -119.195312 58.957031 -118.769531 60.9375 -118.53125 Z M 60.9375 -118.53125 "/></g></g></g><g fill="#000000" fill-opacity="1"><g transform="translate(458.331705, 321.079595)"><g><path d="M 122.984375 -142.296875 C 127.691406 -146.265625 132.644531 -146.390625 137.84375 -142.671875 C 143.039062 -138.953125 143.785156 -134.492188 140.078125 -129.296875 C 121.992188 -101.554688 100.691406 -86.195312 76.171875 -83.21875 C 64.273438 -81.738281 52.816406 -83.722656 41.796875 -89.171875 C 30.773438 -94.617188 22.046875 -102.421875 15.609375 -112.578125 C 9.160156 -122.734375 6.1875 -133.878906 6.6875 -146.015625 C 7.1875 -158.148438 10.78125 -169.050781 17.46875 -178.71875 C 24.644531 -189.113281 34.175781 -196.789062 46.0625 -201.75 C 57.957031 -206.707031 69.726562 -207.453125 81.375 -203.984375 C 86.820312 -202.242188 91.585938 -199.515625 95.671875 -195.796875 C 99.753906 -192.085938 102.296875 -187.628906 103.296875 -182.421875 C 104.035156 -177.960938 103.289062 -173.9375 101.0625 -170.34375 C 98.832031 -166.757812 95.734375 -164.222656 91.765625 -162.734375 C 89.296875 -161.742188 87.316406 -162.050781 85.828125 -163.65625 C 84.335938 -165.269531 83.78125 -167.316406 84.15625 -169.796875 C 84.53125 -172.273438 85.953125 -174.007812 88.421875 -175 C 91.148438 -176.488281 91.398438 -178.46875 89.171875 -180.9375 C 86.941406 -183.414062 84.585938 -185.03125 82.109375 -185.78125 C 76.910156 -187.257812 71.335938 -186.882812 65.390625 -184.65625 C 57.460938 -181.9375 51.023438 -176.734375 46.078125 -169.046875 C 36.910156 -154.679688 36.039062 -141.679688 43.46875 -130.046875 C 46.9375 -124.347656 52.015625 -120.195312 58.703125 -117.59375 C 65.390625 -114.988281 72.203125 -114.179688 79.140625 -115.171875 C 82.109375 -115.671875 85.015625 -116.476562 87.859375 -117.59375 C 90.710938 -118.707031 93.191406 -119.820312 95.296875 -120.9375 C 97.398438 -122.050781 100 -123.722656 103.09375 -125.953125 C 106.195312 -128.179688 108.425781 -129.851562 109.78125 -130.96875 C 111.144531 -132.082031 113.5 -134.0625 116.84375 -136.90625 C 120.195312 -139.757812 122.242188 -141.554688 122.984375 -142.296875 Z M 122.984375 -142.296875 "/></g></g></g><g fill="#000000" fill-opacity="1"><g transform="translate(569.797856, 321.079595)"><g><path d="M 133.390625 -144.15625 C 135.859375 -147.375 139.070312 -147.804688 143.03125 -145.453125 C 147 -143.109375 148.242188 -140.078125 146.765625 -136.359375 C 141.316406 -123.234375 133.015625 -112.023438 121.859375 -102.734375 C 110.710938 -93.441406 98.332031 -87.554688 84.71875 -85.078125 C 70.59375 -82.847656 59.195312 -83.222656 50.53125 -86.203125 C 37.15625 -91.398438 27.125 -100.316406 20.4375 -112.953125 C 15.976562 -121.867188 13.3125 -131.523438 12.4375 -141.921875 C 11.570312 -152.328125 12.9375 -162.609375 16.53125 -172.765625 C 20.125 -182.921875 26.007812 -190.847656 34.1875 -196.546875 C 46.570312 -205.210938 58.957031 -207.9375 71.34375 -204.71875 C 84.21875 -201.25 90.53125 -191.710938 90.28125 -176.109375 C 90.28125 -163.722656 86.75 -153.007812 79.6875 -143.96875 C 72.632812 -134.925781 63.285156 -129.289062 51.640625 -127.0625 C 54.859375 -121.375 59.378906 -117.847656 65.203125 -116.484375 C 71.023438 -115.117188 78.023438 -114.804688 86.203125 -115.546875 C 95.367188 -116.535156 102.425781 -118.765625 107.375 -122.234375 C 120.257812 -131.398438 128.929688 -138.707031 133.390625 -144.15625 Z M 64.28125 -180.578125 C 57.09375 -177.847656 52.007812 -172.582031 49.03125 -164.78125 C 46.0625 -156.976562 45.320312 -148.863281 46.8125 -140.4375 C 57.46875 -143.90625 65.144531 -150.097656 69.84375 -159.015625 C 73.070312 -164.710938 74.3125 -170.410156 73.5625 -176.109375 C 73.3125 -179.328125 72.441406 -181.242188 70.953125 -181.859375 C 69.472656 -182.484375 67.25 -182.054688 64.28125 -180.578125 Z M 64.28125 -180.578125 "/></g></g></g><g fill="#000000" fill-opacity="1"><g transform="translate(681.264007, 321.079595)"><g><path d="M 124.84375 -143.78125 C 129.050781 -145.019531 131.957031 -143.65625 133.5625 -139.6875 C 135.175781 -135.726562 134.25 -132.515625 130.78125 -130.046875 C 128.800781 -128.804688 122.984375 -126.082031 113.328125 -121.875 C 110.847656 -120.875 107.5 -119.320312 103.28125 -117.21875 C 99.070312 -115.113281 96.347656 -113.816406 95.109375 -113.328125 C 93.378906 -112.578125 90.46875 -111.273438 86.375 -109.421875 C 82.289062 -107.566406 79.132812 -106.140625 76.90625 -105.140625 C 87.3125 -80.128906 87.804688 -60.316406 78.390625 -45.703125 C 74.429688 -39.265625 69.171875 -34.492188 62.609375 -31.390625 C 56.046875 -28.296875 49.421875 -27.863281 42.734375 -30.09375 C 36.285156 -32.070312 30.894531 -35.910156 26.5625 -41.609375 C 22.226562 -47.304688 19.691406 -53.5 18.953125 -60.1875 C 16.960938 -76.78125 24.019531 -92.140625 40.125 -106.265625 C 40.125 -106.265625 40 -106.390625 39.75 -106.640625 C 39.507812 -107.128906 39.390625 -107.5 39.390625 -107.75 C 35.421875 -115.425781 32.753906 -120.875 31.390625 -124.09375 C 30.035156 -127.3125 28.242188 -132.078125 26.015625 -138.390625 C 23.785156 -144.710938 22.296875 -150.472656 21.546875 -155.671875 C 18.578125 -174.742188 22.910156 -189.976562 34.546875 -201.375 C 39.503906 -206.332031 46.191406 -209.179688 54.609375 -209.921875 C 63.035156 -210.660156 70.222656 -209.175781 76.171875 -205.46875 C 81.617188 -202.25 85.828125 -197.726562 88.796875 -191.90625 C 91.773438 -186.082031 92.890625 -180.078125 92.140625 -173.890625 C 91.148438 -166.953125 87.867188 -161.5625 82.296875 -157.71875 C 76.722656 -153.882812 70.71875 -153.820312 64.28125 -157.53125 C 60.5625 -160.257812 59.503906 -163.664062 61.109375 -167.75 C 62.722656 -171.84375 65.882812 -173.390625 70.59375 -172.390625 C 73.5625 -171.648438 74.925781 -173.015625 74.6875 -176.484375 C 74.1875 -181.191406 72.453125 -184.785156 69.484375 -187.265625 C 68.984375 -187.503906 68.609375 -187.625 68.359375 -187.625 C 62.660156 -190.601562 58.328125 -188.375 55.359375 -180.9375 C 54.367188 -178.46875 53.8125 -175.679688 53.6875 -172.578125 C 53.5625 -169.484375 53.6875 -166.632812 54.0625 -164.03125 C 54.4375 -161.4375 55.179688 -158.34375 56.296875 -154.75 C 57.410156 -151.15625 58.335938 -148.367188 59.078125 -146.390625 C 59.816406 -144.410156 60.929688 -141.6875 62.421875 -138.21875 C 62.910156 -137.226562 63.15625 -136.484375 63.15625 -135.984375 C 64.394531 -133.015625 66.253906 -128.925781 68.734375 -123.71875 C 76.410156 -127.4375 84.832031 -130.78125 94 -133.75 C 114.0625 -140.4375 124.34375 -143.78125 124.84375 -143.78125 Z M 56.109375 -65.015625 C 56.597656 -68.984375 54.613281 -75.671875 50.15625 -85.078125 C 50.15625 -85.328125 50.09375 -85.578125 49.96875 -85.828125 C 49.84375 -86.078125 49.78125 -86.328125 49.78125 -86.578125 C 42.601562 -78.398438 39.878906 -70.71875 41.609375 -63.53125 C 42.847656 -58.332031 45.382812 -56.039062 49.21875 -56.65625 C 53.0625 -57.28125 55.359375 -60.066406 56.109375 -65.015625 Z M 56.109375 -65.015625 "/></g></g></g><g fill="#000000" fill-opacity="1"><g transform="translate(778.99181, 321.079595)"><g/></g></g><g fill="#000000" fill-opacity="1"><g transform="translate(191.19218, 583.771339)"><g><path d="M 128.765625 -57.78125 C 130.304688 -57.78125 131.523438 -57.242188 132.421875 -56.171875 C 133.316406 -55.109375 133.765625 -53.953125 133.765625 -52.703125 C 133.765625 -51.453125 133.316406 -50.257812 132.421875 -49.125 C 131.523438 -48 130.304688 -47.378906 128.765625 -47.265625 C 114.847656 -46.429688 105.867188 -45.773438 101.828125 -45.296875 C 102.304688 -31.503906 99.097656 -19.019531 92.203125 -7.84375 C 86.378906 1.78125 79.363281 8.4375 71.15625 12.125 C 67.351562 13.675781 63.429688 14.566406 59.390625 14.796875 C 55.347656 15.035156 51.421875 14.289062 47.609375 12.5625 C 43.804688 10.84375 40.957031 8.140625 39.0625 4.453125 C 34.425781 -4.335938 36.679688 -14.800781 45.828125 -26.9375 C 52.128906 -35.25 59.921875 -41.726562 69.203125 -46.375 C 73.835938 -48.632812 78.769531 -50.535156 84 -52.078125 C 83.644531 -55.398438 82.875 -58.785156 81.6875 -62.234375 C 79.425781 -68.304688 75.46875 -73.125 69.8125 -76.6875 C 64.164062 -80.25 58.253906 -81.316406 52.078125 -79.890625 C 50.765625 -79.421875 49.28125 -78.890625 47.625 -78.296875 C 47.5 -78.296875 47.378906 -78.296875 47.265625 -78.296875 C 47.140625 -78.171875 47.019531 -78.109375 46.90625 -78.109375 C 46.070312 -77.640625 45.238281 -77.460938 44.40625 -77.578125 C 42.03125 -77.097656 40.304688 -77.898438 39.234375 -79.984375 C 38.160156 -82.066406 38.398438 -83.941406 39.953125 -85.609375 C 40.421875 -86.203125 41.21875 -87.210938 42.34375 -88.640625 C 43.476562 -90.066406 44.40625 -91.132812 45.125 -91.84375 C 47.144531 -93.863281 48.804688 -95.585938 50.109375 -97.015625 C 52.492188 -99.628906 55.113281 -103.492188 57.96875 -108.609375 C 59.269531 -110.867188 60.160156 -112.710938 60.640625 -114.140625 C 60.992188 -115.328125 61.289062 -116.457031 61.53125 -117.53125 C 61.769531 -118.601562 61.890625 -119.253906 61.890625 -119.484375 C 62.242188 -123.296875 61.707031 -126.390625 60.28125 -128.765625 C 60.28125 -128.765625 60.160156 -128.972656 59.921875 -129.390625 C 59.679688 -129.804688 59.472656 -130.128906 59.296875 -130.359375 C 59.117188 -130.597656 59.03125 -130.71875 59.03125 -130.71875 C 59.03125 -130.84375 58.878906 -131.023438 58.578125 -131.265625 C 58.285156 -131.503906 58.078125 -131.679688 57.953125 -131.796875 C 57.835938 -131.910156 57.78125 -131.96875 57.78125 -131.96875 C 56.707031 -132.925781 55.34375 -133.640625 53.6875 -134.109375 C 50.238281 -135.179688 46.609375 -134.882812 42.796875 -133.21875 C 36.734375 -130.601562 31.976562 -126.800781 28.53125 -121.8125 C 28.53125 -120.5 28.53125 -118.054688 28.53125 -114.484375 C 28.53125 -110.921875 28.53125 -108.128906 28.53125 -106.109375 C 28.53125 -103.023438 28.410156 -97.5 28.171875 -89.53125 C 27.941406 -81.5625 27.882812 -75.378906 28 -70.984375 C 28 -68.960938 28.023438 -63.757812 28.078125 -55.375 C 28.140625 -46.988281 28.234375 -40.476562 28.359375 -35.84375 C 28.472656 -35.601562 29.1875 -23.65625 30.5 0 C 30.613281 1.90625 29.804688 3.390625 28.078125 4.453125 C 26.359375 5.523438 24.546875 5.789062 22.640625 5.25 C 20.742188 4.71875 19.617188 3.441406 19.265625 1.421875 C 17.484375 -8.921875 15.9375 -20.804688 14.625 -34.234375 C 12.363281 -55.753906 11.113281 -67.765625 10.875 -70.265625 C 10.757812 -72.640625 10.519531 -76.351562 10.15625 -81.40625 C 9.800781 -86.46875 9.503906 -90.957031 9.265625 -94.875 C 9.035156 -98.800781 8.921875 -102.546875 8.921875 -106.109375 C 8.921875 -109.328125 9.039062 -115.332031 9.28125 -124.125 C 9.632812 -132.925781 10.820312 -139.171875 12.84375 -142.859375 C 14.03125 -145.234375 16.195312 -146.445312 19.34375 -146.5 C 22.5 -146.5625 24.671875 -145.347656 25.859375 -142.859375 C 26.578125 -141.191406 27.171875 -139.347656 27.640625 -137.328125 C 29.898438 -139.703125 32.398438 -141.722656 35.140625 -143.390625 C 44.523438 -149.210938 53.617188 -151.054688 62.421875 -148.921875 C 68.128906 -147.609375 72.734375 -144.691406 76.234375 -140.171875 C 79.742188 -135.660156 81.859375 -130.375 82.578125 -124.3125 C 83.171875 -118.84375 82.457031 -113.398438 80.4375 -107.984375 C 78.414062 -102.578125 75.5 -97.734375 71.6875 -93.453125 C 70.625 -92.378906 69.4375 -91.304688 68.125 -90.234375 C 70.738281 -89.640625 73.238281 -88.8125 75.625 -87.75 C 85.96875 -83.34375 93.457031 -75.375 98.09375 -63.84375 C 99.039062 -61.351562 99.8125 -58.738281 100.40625 -56 C 109.320312 -57.425781 118.773438 -58.019531 128.765625 -57.78125 Z M 73.125 -15.15625 Z M 82.21875 -33.34375 C 82.925781 -36.195312 83.460938 -38.816406 83.828125 -41.203125 C 80.492188 -40.003906 77.398438 -38.632812 74.546875 -37.09375 C 67.410156 -33.164062 61.582031 -28.289062 57.0625 -22.46875 C 49.8125 -12.957031 47.972656 -6.65625 51.546875 -3.5625 C 52.253906 -2.96875 53.320312 -2.789062 54.75 -3.03125 C 56.0625 -3.144531 57.785156 -3.617188 59.921875 -4.453125 C 60.867188 -4.929688 62 -5.523438 63.3125 -6.234375 C 63.90625 -6.710938 64.675781 -7.25 65.625 -7.84375 C 65.625 -7.84375 65.710938 -7.929688 65.890625 -8.109375 C 66.078125 -8.285156 66.285156 -8.460938 66.515625 -8.640625 C 66.753906 -8.828125 66.875 -8.921875 66.875 -8.921875 C 68.300781 -10.109375 69.550781 -11.296875 70.625 -12.484375 C 70.738281 -12.597656 70.882812 -12.742188 71.0625 -12.921875 C 71.25 -13.109375 71.429688 -13.289062 71.609375 -13.46875 C 71.785156 -13.644531 71.960938 -13.820312 72.140625 -14 C 72.316406 -14.175781 72.460938 -14.328125 72.578125 -14.453125 C 72.578125 -14.566406 72.695312 -14.679688 72.9375 -14.796875 C 74.84375 -17.410156 76.6875 -20.382812 78.46875 -23.71875 C 79.0625 -24.789062 79.535156 -25.863281 79.890625 -26.9375 C 80.015625 -26.9375 80.101562 -27.082031 80.15625 -27.375 C 80.21875 -27.675781 80.25 -27.828125 80.25 -27.828125 C 80.96875 -29.722656 81.625 -31.5625 82.21875 -33.34375 Z M 82.21875 -33.34375 "/></g></g></g><g fill="#000000" fill-opacity="1"><g transform="translate(300.697886, 583.771339)"><g><path d="M 65.453125 -11.40625 C 68.296875 8.207031 67.519531 24.253906 63.125 36.734375 C 60.15625 45.179688 55.578125 51.546875 49.390625 55.828125 C 45.234375 58.796875 40.359375 60.695312 34.765625 61.53125 C 29.179688 62.363281 23.953125 61.945312 19.078125 60.28125 C 15.148438 58.96875 11.640625 56.765625 8.546875 53.671875 C 5.460938 50.585938 3.117188 47.113281 1.515625 43.25 C -0.0859375 39.382812 -0.800781 35.25 -0.625 30.84375 C -0.445312 26.445312 0.828125 22.46875 3.203125 18.90625 C 6.054688 14.507812 9.921875 11.6875 14.796875 10.4375 C 19.671875 9.1875 24.1875 10.34375 28.34375 13.90625 C 30.488281 16.050781 31.769531 18.816406 32.1875 22.203125 C 32.601562 25.585938 31.890625 28.585938 30.046875 31.203125 C 28.203125 33.828125 25.5 35.019531 21.9375 34.78125 C 19.550781 34.539062 18.238281 33.320312 18 31.125 C 17.769531 28.925781 18.722656 27.347656 20.859375 26.390625 C 22.765625 25.679688 23.328125 24.523438 22.546875 22.921875 C 21.773438 21.316406 20.441406 20.628906 18.546875 20.859375 C 15.566406 21.222656 13.363281 23.128906 11.9375 26.578125 C 10.875 29.066406 10.609375 31.675781 11.140625 34.40625 C 11.671875 37.144531 12.832031 39.585938 14.625 41.734375 C 18.300781 46.484375 23.53125 48.085938 30.3125 46.546875 C 34.113281 45.835938 37.203125 44.648438 39.578125 42.984375 C 40.179688 42.503906 40.484375 42.265625 40.484375 42.265625 C 41.078125 41.671875 41.550781 41.195312 41.90625 40.84375 C 42.144531 40.601562 42.441406 40.304688 42.796875 39.953125 C 42.796875 39.953125 42.851562 39.859375 42.96875 39.671875 C 43.09375 39.492188 43.15625 39.40625 43.15625 39.40625 C 47.90625 32.28125 50.34375 21.757812 50.46875 7.84375 C 50.46875 2.375 50.109375 -3.210938 49.390625 -8.921875 C 49.390625 -9.273438 49.390625 -9.507812 49.390625 -9.625 C 49.148438 -10.695312 48.972656 -11.828125 48.859375 -13.015625 C 48.503906 -15.160156 48.148438 -17.421875 47.796875 -19.796875 C 47.078125 -25.148438 46.476562 -29.90625 46 -34.0625 C 45.53125 -38.226562 45.234375 -40.960938 45.109375 -42.265625 C 40.597656 -36.910156 35.191406 -34.117188 28.890625 -33.890625 C 25.316406 -33.765625 21.863281 -34.648438 18.53125 -36.546875 C 15.207031 -38.453125 12.503906 -40.953125 10.421875 -44.046875 C 8.347656 -47.140625 6.953125 -50.46875 6.234375 -54.03125 C 5.398438 -58.4375 5.101562 -64.265625 5.34375 -71.515625 C 5.582031 -81.148438 6.351562 -87.988281 7.65625 -92.03125 C 8.613281 -95 10.695312 -96.484375 13.90625 -96.484375 C 17.113281 -96.484375 19.132812 -95 19.96875 -92.03125 C 20.5625 -89.769531 21.003906 -87.300781 21.296875 -84.625 C 21.597656 -81.945312 21.75 -79.445312 21.75 -77.125 C 21.75 -74.8125 21.75 -72.347656 21.75 -69.734375 C 21.75 -67.117188 21.8125 -64.617188 21.9375 -62.234375 C 21.9375 -60.929688 22.023438 -59.625 22.203125 -58.3125 C 22.378906 -57.007812 22.703125 -55.582031 23.171875 -54.03125 C 23.648438 -52.488281 24.394531 -51.238281 25.40625 -50.28125 C 26.414062 -49.332031 27.578125 -48.921875 28.890625 -49.046875 C 30.546875 -49.160156 32 -49.722656 33.25 -50.734375 C 34.5 -51.742188 35.507812 -53.203125 36.28125 -55.109375 C 37.0625 -57.015625 37.65625 -58.5625 38.0625 -59.75 C 38.476562 -60.9375 38.867188 -62.476562 39.234375 -64.375 C 40.660156 -70.207031 41.550781 -74.609375 41.90625 -77.578125 C 42.019531 -78.410156 42.132812 -79.863281 42.25 -81.9375 C 42.375 -84.019531 42.554688 -85.773438 42.796875 -87.203125 C 43.035156 -88.628906 43.453125 -89.941406 44.046875 -91.140625 C 44.160156 -91.367188 44.28125 -91.601562 44.40625 -91.84375 C 44.519531 -91.96875 44.578125 -92.117188 44.578125 -92.296875 C 44.578125 -92.472656 44.578125 -92.617188 44.578125 -92.734375 C 44.816406 -93.804688 45.289062 -94.671875 46 -95.328125 C 46.71875 -95.984375 47.550781 -96.398438 48.5 -96.578125 C 49.457031 -96.753906 50.410156 -96.753906 51.359375 -96.578125 C 52.304688 -96.398438 53.132812 -95.953125 53.84375 -95.234375 C 54.5625 -94.523438 55.039062 -93.691406 55.28125 -92.734375 C 56.226562 -88.578125 56.96875 -84.207031 57.5 -79.625 C 58.039062 -75.050781 58.546875 -69.613281 59.015625 -63.3125 C 59.492188 -57.007812 59.851562 -52.609375 60.09375 -50.109375 C 60.6875 -44.640625 62.472656 -31.738281 65.453125 -11.40625 Z M 65.453125 -11.40625 "/></g></g></g><g fill="#000000" fill-opacity="1"><g transform="translate(437.197558, 670.777701)"><g><path d="M 205.46875 -361.140625 C 207.195312 -364.859375 209.859375 -367.210938 213.453125 -368.203125 C 217.046875 -369.191406 220.453125 -368.941406 223.671875 -367.453125 C 226.890625 -365.972656 229.488281 -363.5625 231.46875 -360.21875 C 233.457031 -356.875 233.957031 -353.34375 232.96875 -349.625 C 226.28125 -326.59375 215.875 -293.894531 201.75 -251.53125 C 187.632812 -209.175781 178.84375 -182.675781 175.375 -172.03125 C 169.925781 -154.6875 162 -127.929688 151.59375 -91.765625 C 149.113281 -83.097656 145.273438 -70.21875 140.078125 -53.125 C 140.078125 -52.882812 139.640625 -51.210938 138.765625 -48.109375 C 137.898438 -45.015625 137.34375 -43.09375 137.09375 -42.34375 C 136.851562 -41.601562 136.296875 -39.929688 135.421875 -37.328125 C 134.554688 -34.734375 133.816406 -32.878906 133.203125 -31.765625 C 132.585938 -30.648438 131.78125 -29.101562 130.78125 -27.125 C 129.789062 -25.144531 128.738281 -23.472656 127.625 -22.109375 C 126.507812 -20.742188 125.210938 -19.441406 123.734375 -18.203125 C 119.023438 -13.492188 113.570312 -10.644531 107.375 -9.65625 C 101.1875 -8.664062 95.117188 -9.410156 89.171875 -11.890625 C 80.753906 -15.609375 73.078125 -23.039062 66.140625 -34.1875 C 62.171875 -40.375 58.390625 -48.050781 54.796875 -57.21875 C 51.210938 -66.382812 48.738281 -73.441406 47.375 -78.390625 C 46.007812 -83.347656 43.71875 -91.648438 40.5 -103.296875 C 37.03125 -116.671875 33.6875 -131.40625 30.46875 -147.5 C 27.25 -163.601562 23.96875 -180.695312 20.625 -198.78125 C 17.28125 -216.863281 14.367188 -231.722656 11.890625 -243.359375 C 9.171875 -255.003906 6.078125 -264.789062 2.609375 -272.71875 C -2.097656 -283.863281 -7.300781 -290.550781 -13 -292.78125 C -17.207031 -294.757812 -21.171875 -293.953125 -24.890625 -290.359375 C -28.609375 -286.765625 -30.773438 -282.488281 -31.390625 -277.53125 C -32.015625 -272.582031 -31.210938 -268.253906 -28.984375 -264.546875 C -25.515625 -259.835938 -25.757812 -255.128906 -29.71875 -250.421875 C -33.4375 -245.960938 -37.398438 -245.46875 -41.609375 -248.9375 C -42.109375 -249.425781 -42.601562 -249.921875 -43.09375 -250.421875 C -49.78125 -258.847656 -52.691406 -268.445312 -51.828125 -279.21875 C -50.960938 -289.988281 -46.566406 -299.09375 -38.640625 -306.53125 C -28.734375 -315.195312 -17.460938 -318.722656 -4.828125 -317.109375 C 7.804688 -315.503906 18.457031 -309.867188 27.125 -300.203125 C 33.070312 -293.515625 38.273438 -286.144531 42.734375 -278.09375 C 47.191406 -270.050781 51.03125 -260.890625 54.25 -250.609375 C 57.46875 -240.328125 59.941406 -231.65625 61.671875 -224.59375 C 63.410156 -217.539062 65.519531 -207.570312 68 -194.6875 C 70.476562 -181.8125 72.210938 -173.019531 73.203125 -168.3125 C 80.628906 -134.625 87.5625 -108.242188 94 -89.171875 C 95.738281 -83.972656 97.847656 -78.03125 100.328125 -71.34375 C 100.566406 -72.082031 100.992188 -73.253906 101.609375 -74.859375 C 102.234375 -76.472656 102.671875 -77.648438 102.921875 -78.390625 C 109.609375 -96.472656 114.5625 -109.601562 117.78125 -117.78125 C 126.695312 -142.300781 136.234375 -169.671875 146.390625 -199.890625 C 147.378906 -202.859375 148.863281 -207.316406 150.84375 -213.265625 C 173.144531 -279.898438 191.351562 -329.191406 205.46875 -361.140625 Z M 109.984375 -53.125 Z M 109.984375 -53.125 "/></g></g></g><g fill="#000000" fill-opacity="1"><g transform="translate(633.377999, 670.777701)"><g><path d="M 96.609375 -136.359375 C 100.066406 -139.578125 103.59375 -139.820312 107.1875 -137.09375 C 110.78125 -134.375 111.585938 -130.910156 109.609375 -126.703125 C 106.878906 -121.003906 103.71875 -115.675781 100.125 -110.71875 C 96.539062 -105.769531 92.394531 -101.1875 87.6875 -96.96875 C 82.976562 -92.757812 78.082031 -89.476562 73 -87.125 C 67.925781 -84.769531 62.351562 -83.835938 56.28125 -84.328125 C 50.21875 -84.828125 44.210938 -87.0625 38.265625 -91.03125 C 31.328125 -95.488281 26 -101.742188 22.28125 -109.796875 C 18.570312 -117.847656 16.84375 -126.207031 17.09375 -134.875 C 17.34375 -140.320312 18.207031 -149.363281 19.6875 -162 C 21.175781 -174.875 22.785156 -183.914062 24.515625 -189.125 C 26.003906 -193.332031 28.789062 -196.113281 32.875 -197.46875 C 36.96875 -198.832031 40.75 -198.398438 44.21875 -196.171875 C 47.6875 -193.941406 49.421875 -190.476562 49.421875 -185.78125 C 49.910156 -178.84375 49.039062 -164.84375 46.8125 -143.78125 C 45.570312 -130.40625 47.179688 -120.625 51.640625 -114.4375 C 54.367188 -111.21875 57.34375 -109.484375 60.5625 -109.234375 C 63.78125 -108.984375 67.242188 -110.097656 70.953125 -112.578125 C 74.671875 -115.054688 77.894531 -117.53125 80.625 -120 C 83.351562 -122.476562 86.445312 -125.640625 89.90625 -129.484375 C 93.375 -133.328125 95.609375 -135.617188 96.609375 -136.359375 Z M 53.875 -222.171875 C 51.394531 -217.222656 47.179688 -214.75 41.234375 -214.75 C 35.296875 -214.75 31.148438 -217.222656 28.796875 -222.171875 C 26.441406 -227.128906 26.441406 -232.023438 28.796875 -236.859375 C 31.148438 -241.691406 35.296875 -244.109375 41.234375 -244.109375 C 47.179688 -244.109375 51.394531 -241.691406 53.875 -236.859375 C 56.351562 -232.023438 56.351562 -227.128906 53.875 -222.171875 Z M 53.875 -222.171875 "/></g></g></g><g fill="#000000" fill-opacity="1"><g transform="translate(707.688738, 670.777701)"><g><path d="M 122.984375 -142.296875 C 127.691406 -146.265625 132.644531 -146.390625 137.84375 -142.671875 C 143.039062 -138.953125 143.785156 -134.492188 140.078125 -129.296875 C 121.992188 -101.554688 100.691406 -86.195312 76.171875 -83.21875 C 64.273438 -81.738281 52.816406 -83.722656 41.796875 -89.171875 C 30.773438 -94.617188 22.046875 -102.421875 15.609375 -112.578125 C 9.160156 -122.734375 6.1875 -133.878906 6.6875 -146.015625 C 7.1875 -158.148438 10.78125 -169.050781 17.46875 -178.71875 C 24.644531 -189.113281 34.175781 -196.789062 46.0625 -201.75 C 57.957031 -206.707031 69.726562 -207.453125 81.375 -203.984375 C 86.820312 -202.242188 91.585938 -199.515625 95.671875 -195.796875 C 99.753906 -192.085938 102.296875 -187.628906 103.296875 -182.421875 C 104.035156 -177.960938 103.289062 -173.9375 101.0625 -170.34375 C 98.832031 -166.757812 95.734375 -164.222656 91.765625 -162.734375 C 89.296875 -161.742188 87.316406 -162.050781 85.828125 -163.65625 C 84.335938 -165.269531 83.78125 -167.316406 84.15625 -169.796875 C 84.53125 -172.273438 85.953125 -174.007812 88.421875 -175 C 91.148438 -176.488281 91.398438 -178.46875 89.171875 -180.9375 C 86.941406 -183.414062 84.585938 -185.03125 82.109375 -185.78125 C 76.910156 -187.257812 71.335938 -186.882812 65.390625 -184.65625 C 57.460938 -181.9375 51.023438 -176.734375 46.078125 -169.046875 C 36.910156 -154.679688 36.039062 -141.679688 43.46875 -130.046875 C 46.9375 -124.347656 52.015625 -120.195312 58.703125 -117.59375 C 65.390625 -114.988281 72.203125 -114.179688 79.140625 -115.171875 C 82.109375 -115.671875 85.015625 -116.476562 87.859375 -117.59375 C 90.710938 -118.707031 93.191406 -119.820312 95.296875 -120.9375 C 97.398438 -122.050781 100 -123.722656 103.09375 -125.953125 C 106.195312 -128.179688 108.425781 -129.851562 109.78125 -130.96875 C 111.144531 -132.082031 113.5 -134.0625 116.84375 -136.90625 C 120.195312 -139.757812 122.242188 -141.554688 122.984375 -142.296875 Z M 122.984375 -142.296875 "/></g></g></g></g></g></svg>