<svg xmlns="http://www.w3.org/2000/svg" xmlns:xlink="http://www.w3.org/1999/xlink" width="1600" zoomAndPan="magnify" viewBox="0 0 1200 1199.999942" height="1600" preserveAspectRatio="xMidYMid meet" version="1.0"><defs><clipPath id="69d52572bb"><path d="M 21.105469 18 L 1179 18 L 1179 1181.929688 L 21.105469 1181.929688 Z M 21.105469 18 " clip-rule="nonzero"/></clipPath></defs><g clip-path="url(#69d52572bb)"><path fill="#000000" d="M 1010.265625 187.53125 C 901.425781 78.609375 756.691406 18.511719 602.464844 18.511719 C 284.691406 18.511719 26.050781 277.015625 25.9375 594.8125 C 25.9375 696.375 52.457031 795.578125 102.90625 882.933594 L 21.105469 1181.578125 L 326.742188 1101.410156 C 410.960938 1147.359375 505.761719 1171.515625 602.234375 1171.570312 L 602.464844 1171.570312 C 920.179688 1171.570312 1178.875 913.011719 1178.933594 595.273438 C 1178.933594 441.261719 1119.105469 296.511719 1010.207031 187.53125 Z M 602.464844 1074.265625 L 602.292969 1074.265625 C 516.347656 1074.265625 431.957031 1051.148438 358.378906 1007.5 L 340.894531 997.089844 L 159.511719 1044.648438 L 207.890625 867.867188 L 196.503906 849.75 C 148.527344 773.492188 123.214844 685.332031 123.273438 594.8125 C 123.386719 330.730469 338.363281 115.816406 602.636719 115.816406 C 730.632812 115.816406 850.917969 165.734375 941.40625 256.3125 C 1031.894531 346.832031 1081.65625 467.199219 1081.597656 595.214844 C 1081.484375 859.355469 866.507812 1074.265625 602.40625 1074.265625 Z M 865.300781 715.523438 C 850.917969 708.335938 780.105469 673.484375 766.875 668.710938 C 753.640625 663.878906 744.09375 661.523438 734.484375 675.898438 C 724.878906 690.335938 697.265625 722.769531 688.867188 732.375 C 680.46875 741.976562 672.070312 743.1875 657.632812 735.941406 C 643.25 728.75 596.828125 713.511719 541.773438 664.457031 C 498.972656 626.269531 470.039062 579.113281 461.640625 564.675781 C 453.242188 550.242188 460.777344 542.480469 467.96875 535.289062 C 474.410156 528.847656 482.347656 518.441406 489.597656 510.042969 C 496.789062 501.648438 499.203125 495.609375 503.980469 486.003906 C 508.8125 476.402344 506.394531 468.003906 502.769531 460.757812 C 499.148438 453.570312 470.382812 382.660156 458.359375 353.847656 C 446.683594 325.785156 434.773438 329.578125 425.972656 329.121094 C 417.574219 328.71875 407.96875 328.601562 398.363281 328.601562 C 388.753906 328.601562 373.164062 332.167969 359.933594 346.601562 C 346.703125 361.035156 309.542969 395.886719 309.542969 466.738281 C 309.542969 537.589844 361.140625 606.082031 368.390625 615.746094 C 375.582031 625.347656 469.980469 770.789062 614.488281 833.1875 C 648.828125 848.023438 675.695312 856.882812 696.632812 863.550781 C 731.148438 874.535156 762.558594 872.984375 787.351562 869.246094 C 815.023438 865.105469 872.546875 834.394531 884.570312 800.753906 C 896.59375 767.109375 896.59375 738.296875 892.96875 732.257812 C 889.347656 726.21875 879.738281 722.65625 865.359375 715.410156 Z M 865.300781 715.523438 " fill-opacity="1" fill-rule="evenodd"/></g></svg>